0
SECTION
2
HEADER
9
$INSUNITS
70
4
9
$ACADVER
1
AC1014
9
$HANDSEED
5
FFFF
0
ENDSEC
0
SECTION
2
TABLES
0
TABLE
2
VPORT
5
8
100
AcDbSymbolTable
0
ENDTAB
0
TABLE
2
LTYPE
5
5
100
AcDbSymbolTable
0
LTYPE
5
14
100
AcDbSymbolTableRecord
100
AcDbLinetypeTableRecord
2
BYBLOCK
70
0
0
LTYPE
5
15
100
AcDbSymbolTableRecord
100
AcDbLinetypeTableRecord
2
BYLAYER
70
0
0
ENDTAB
0
TABLE
2
LAYER
5
2
100
AcDbSymbolTable
70
2
0
LAYER
5
50
100
AcDbSymbolTableRecord
100
AcDbLayerTableRecord
2
0
70
0
6
CONTINUOUS
0
ENDTAB
0
TABLE
2
STYLE
5
3
100
AcDbSymbolTable
70
1
0
STYLE
5
11
100
AcDbSymbolTableRecord
100
AcDbTextStyleTableRecord
2
STANDARD
70
0
0
ENDTAB
0
TABLE
2
VIEW
5
6
100
AcDbSymbolTable
70
0
0
ENDTAB
0
TABLE
2
UCS
5
7
100
AcDbSymbolTable
70
0
0
ENDTAB
0
TABLE
2
APPID
5
9
100
AcDbSymbolTable
70
2
0
APPID
5
12
100
AcDbSymbolTableRecord
100
AcDbRegAppTableRecord
2
ACAD
70
0
0
ENDTAB
0
TABLE
2
DIMSTYLE
5
A
100
AcDbSymbolTable
70
1
0
ENDTAB
0
TABLE
2
BLOCK_RECORD
5
1
100
AcDbSymbolTable
70
1
0
BLOCK_RECORD
5
1F
100
AcDbSymbolTableRecord
100
AcDbBlockTableRecord
2
*MODEL_SPACE
0
BLOCK_RECORD
5
1B
100
AcDbSymbolTableRecord
100
AcDbBlockTableRecord
2
*PAPER_SPACE
0
ENDTAB
0
ENDSEC
0
SECTION
2
BLOCKS
0
BLOCK
5
20
100
AcDbEntity
100
AcDbBlockBegin
2
*MODEL_SPACE
0
ENDBLK
5
21
100
AcDbEntity
100
AcDbBlockEnd
0
BLOCK
5
1C
100
AcDbEntity
100
AcDbBlockBegin
2
*PAPER_SPACE
0
ENDBLK
5
1D
100
AcDbEntity
100
AcDbBlockEnd
0
ENDSEC
0
SECTION
2
ENTITIES
0
LINE
5
100
100
AcDbEntity
8
0
100
AcDbLine
10
132.98803163580001
20
303.90405906645998
30
0
11
132.98803163580001
21
128.41405906671997
31
0
0
LINE
5
101
100
AcDbEntity
8
0
100
AcDbLine
10
437.01968163580005
20
128.41405906672
30
0
11
437.01968163580005
21
303.90405906646004
31
0
0
ARC
5
102
100
AcDbEntity
8
0
100
AcDbCircle
10
435.01968163783999
20
303.90405906645998
30
0
40
2.0000000004999663
100
AcDbArc
50
0
51
90
0
LINE
5
103
100
AcDbEntity
8
0
100
AcDbLine
10
435.01968163783999
20
305.90405906695997
30
0
11
134.98803163630001
21
305.90405906695997
31
0
0
ARC
5
104
100
AcDbEntity
8
0
100
AcDbCircle
10
435.01968163783999
20
128.41405906672
30
0
40
2.0000000005000018
100
AcDbArc
50
-90
51
0
0
LINE
5
105
100
AcDbEntity
8
0
100
AcDbLine
10
134.98803163629998
20
126.41405906622001
30
0
11
435.01968163783999
21
126.41405906621999
31
0
0
ARC
5
106
100
AcDbEntity
8
0
100
AcDbCircle
10
134.98803163629998
20
303.90405906645998
30
0
40
2.0000000005000018
100
AcDbArc
50
89.99999999999919
51
180
0
ARC
5
107
100
AcDbEntity
8
0
100
AcDbCircle
10
134.98803163629998
20
128.41405906672
30
0
40
2.0000000005000018
100
AcDbArc
50
180
51
270
0
CIRCLE
5
108
100
AcDbEntity
8
0
100
AcDbCircle
10
205.30803163610003
20
135.05405906583999
30
0
40
2.65000000098
0
CIRCLE
5
109
100
AcDbEntity
8
0
100
AcDbCircle
10
425.35468163589996
20
135.97905906495998
30
0
40
2.8850073033800006
0
CIRCLE
5
110
100
AcDbEntity
8
0
100
AcDbCircle
10
144.85303163702
20
299.96905906499995
30
0
40
2.8850073033800006
0
CIRCLE
5
111
100
AcDbEntity
8
0
100
AcDbCircle
10
364.69968163804003
20
297.26405906480005
30
0
40
2.65000000098
0
CIRCLE
5
112
100
AcDbEntity
8
0
100
AcDbCircle
10
144.85303163702
20
135.97905906495998
30
0
40
2.8850073033800006
0
CIRCLE
5
113
100
AcDbEntity
8
0
100
AcDbCircle
10
284.92468163793995
20
299.96905906499995
30
0
40
2.8850073033800006
0
CIRCLE
5
114
100
AcDbEntity
8
0
100
AcDbCircle
10
284.27303163568001
20
135.97905906495998
30
0
40
2.8850073033800006
0
CIRCLE
5
115
100
AcDbEntity
8
0
100
AcDbCircle
10
425.15468163712001
20
299.96905906499995
30
0
40
2.8850073033800006
0
LINE
5
116
100
AcDbEntity
8
0
100
AcDbLine
10
181.35718894396513
20
210.136829043369
30
0
11
182.14093094396509
21
209.926827043369
31
0
0
LINE
5
117
100
AcDbEntity
8
0
100
AcDbLine
10
195.37746894396497
20
205.75922904336903
30
0
11
195.53268794396499
21
206.338516043369
31
0
0
LINE
5
118
100
AcDbEntity
8
0
100
AcDbLine
10
200.38659894396494
20
204.41703604336905
30
0
11
213.77835694396481
21
200.82872604336902
31
0
0
LINE
5
119
100
AcDbEntity
8
0
100
AcDbLine
10
222.13281994396476
20
232.00800804336879
30
0
11
222.28803994396475
21
232.58729504336881
31
0
0
LINE
5
120
100
AcDbEntity
8
0
100
AcDbLine
10
196.28235394396498
20
206.13764404336902
30
0
11
199.55109494396496
21
218.33675104336891
31
0
0
LINE
5
121
100
AcDbEntity
8
0
100
AcDbLine
10
219.6137449439648
20
219.6080290433689
30
0
11
222.88248594396475
21
231.80713604336884
31
0
0
LINE
5
122
100
AcDbEntity
8
0
100
AcDbLine
10
218.7088599439648
20
219.22961404336891
30
0
11
218.86407894396478
21
219.80890104336891
31
0
0
LINE
5
123
100
AcDbEntity
8
0
100
AcDbLine
10
218.86407894396478
20
219.80890104336891
30
0
11
219.6137449439648
21
219.6080290433689
31
0
0
LINE
5
124
100
AcDbEntity
8
0
100
AcDbLine
10
222.28803994396475
20
232.58729504336881
30
0
11
208.89628194396488
21
236.17560604336876
31
0
0
LINE
5
125
100
AcDbEntity
8
0
100
AcDbLine
10
200.54181894396493
20
204.99632304336902
30
0
11
200.38659894396494
21
204.41703604336905
31
0
0
LINE
5
126
100
AcDbEntity
8
0
100
AcDbLine
10
217.35753694396479
20
214.18640704336894
30
0
11
203.96577894396495
21
217.77471804336892
31
0
0
LINE
5
127
100
AcDbEntity
8
0
100
AcDbLine
10
181.9857109439651
20
209.34753904336901
30
0
11
195.37746894396497
21
205.75922904336903
31
0
0
LINE
5
128
100
AcDbEntity
8
0
100
AcDbLine
10
182.14093094396509
20
209.926827043369
30
0
11
181.9857109439651
21
209.34753904336901
31
0
0
LINE
5
129
100
AcDbEntity
8
0
100
AcDbLine
10
195.53268794396499
20
206.338516043369
30
0
11
196.28235394396498
21
206.13764404336902
31
0
0
LINE
5
130
100
AcDbEntity
8
0
100
AcDbLine
10
199.75807694396494
20
205.20632604336899
30
0
11
200.54181894396493
21
204.99632304336902
31
0
0
LINE
5
131
100
AcDbEntity
8
0
100
AcDbLine
10
222.88248594396475
20
231.80713604336884
30
0
11
222.13281994396476
21
232.00800804336879
31
0
0
LINE
5
132
100
AcDbEntity
8
0
100
AcDbLine
10
184.6259299439651
20
222.33593704336886
30
0
11
181.35718894396513
21
210.136829043369
31
0
0
LINE
5
133
100
AcDbEntity
8
0
100
AcDbLine
10
185.56489094396508
20
222.70522104336891
30
0
11
185.40967194396504
21
222.12593404336889
31
0
0
LINE
5
134
100
AcDbEntity
8
0
100
AcDbLine
10
207.95732094396487
20
235.80632204336877
30
0
11
204.68857994396495
21
223.60721404336888
31
0
0
LINE
5
135
100
AcDbEntity
8
0
100
AcDbLine
10
205.31710194396487
20
222.81792404336886
30
0
11
218.7088599439648
21
219.22961404336891
31
0
0
LINE
5
136
100
AcDbEntity
8
0
100
AcDbLine
10
208.89628194396488
20
236.17560604336876
30
0
11
208.74106294396486
21
235.59631904336879
31
0
0
LINE
5
137
100
AcDbEntity
8
0
100
AcDbLine
10
198.80142894396496
20
218.53762304336891
30
0
11
198.95664894396498
21
219.1169100433689
31
0
0
LINE
5
138
100
AcDbEntity
8
0
100
AcDbLine
10
208.74106294396486
20
235.59631904336879
30
0
11
207.95732094396487
21
235.80632204336877
31
0
0
LINE
5
139
100
AcDbEntity
8
0
100
AcDbLine
10
199.55109494396496
20
218.33675104336891
30
0
11
198.80142894396496
21
218.53762304336891
31
0
0
LINE
5
140
100
AcDbEntity
8
0
100
AcDbLine
10
185.40967194396504
20
222.12593404336889
30
0
11
184.6259299439651
21
222.33593704336886
31
0
0
LINE
5
141
100
AcDbEntity
8
0
100
AcDbLine
10
203.96577894396495
20
217.77471804336892
30
0
11
203.8105599439649
21
217.19543104336893
31
0
0
LINE
5
142
100
AcDbEntity
8
0
100
AcDbLine
10
203.8105599439649
20
217.19543104336893
30
0
11
203.02681794396491
21
217.40543404336893
31
0
0
LINE
5
143
100
AcDbEntity
8
0
100
AcDbLine
10
204.68857994396495
20
223.60721404336888
30
0
11
205.47232194396489
21
223.39721204336885
31
0
0
LINE
5
144
100
AcDbEntity
8
0
100
AcDbLine
10
205.47232194396489
20
223.39721204336885
30
0
11
205.31710194396487
21
222.81792404336886
31
0
0
LINE
5
145
100
AcDbEntity
8
0
100
AcDbLine
10
198.95664894396498
20
219.1169100433689
30
0
11
185.56489094396508
21
222.70522104336891
31
0
0
LINE
5
146
100
AcDbEntity
8
0
100
AcDbLine
10
218.1589649439648
20
200.27582304336906
30
0
11
218.94270694396477
21
200.06582004336906
31
0
0
LINE
5
147
100
AcDbEntity
8
0
100
AcDbLine
10
218.94270694396477
20
200.06582004336906
30
0
11
218.78748694396478
21
199.48653304336904
31
0
0
LINE
5
148
100
AcDbEntity
8
0
100
AcDbLine
10
218.78748694396478
20
199.48653304336904
30
0
11
232.17924494396468
21
195.89822204336909
31
0
0
LINE
5
149
100
AcDbEntity
8
0
100
AcDbLine
10
217.20231694396483
20
213.60712004336898
30
0
11
217.35753694396479
21
214.18640704336894
31
0
0
LINE
5
150
100
AcDbEntity
8
0
100
AcDbLine
10
233.08412994396468
20
196.27663704336911
30
0
11
236.35287094396466
21
208.47574504336899
31
0
0
LINE
5
151
100
AcDbEntity
8
0
100
AcDbLine
10
222.36666694396476
20
212.84421504336899
30
0
11
222.21144794396477
21
212.26492804336897
31
0
0
LINE
5
152
100
AcDbEntity
8
0
100
AcDbLine
10
203.02681794396491
20
217.40543404336893
30
0
11
199.75807694396494
21
205.20632604336899
31
0
0
LINE
5
153
100
AcDbEntity
8
0
100
AcDbLine
10
213.93357594396485
20
201.40801304336907
30
0
11
214.68324194396479
21
201.20714004336907
31
0
0
LINE
5
154
100
AcDbEntity
8
0
100
AcDbLine
10
214.68324194396479
20
201.20714004336907
30
0
11
217.95198294396477
21
213.40624804336895
31
0
0
LINE
5
155
100
AcDbEntity
8
0
100
AcDbLine
10
217.95198294396477
20
213.40624804336895
30
0
11
217.20231694396483
21
213.60712004336898
31
0
0
LINE
5
156
100
AcDbEntity
8
0
100
AcDbLine
10
235.75842494396468
20
209.25590404336901
30
0
11
222.36666694396476
21
212.84421504336899
31
0
0
LINE
5
157
100
AcDbEntity
8
0
100
AcDbLine
10
235.60320494396464
20
208.67661704336896
30
0
11
235.75842494396468
21
209.25590404336901
31
0
0
LINE
5
158
100
AcDbEntity
8
0
100
AcDbLine
10
232.17924494396468
20
195.89822204336909
30
0
11
232.33446394396466
21
196.47751004336911
31
0
0
LINE
5
159
100
AcDbEntity
8
0
100
AcDbLine
10
236.35287094396466
20
208.47574504336899
30
0
11
235.60320494396464
21
208.67661704336896
31
0
0
LINE
5
160
100
AcDbEntity
8
0
100
AcDbLine
10
222.21144794396477
20
212.26492804336897
30
0
11
221.42770594396478
21
212.47493104336894
31
0
0
LINE
5
161
100
AcDbEntity
8
0
100
AcDbLine
10
232.33446394396466
20
196.47751004336911
30
0
11
233.08412994396468
21
196.27663704336911
31
0
0
LINE
5
162
100
AcDbEntity
8
0
100
AcDbLine
10
221.42770594396478
20
212.47493104336894
30
0
11
218.1589649439648
21
200.27582304336906
31
0
0
LINE
5
163
100
AcDbEntity
8
0
100
AcDbLine
10
213.77835694396481
20
200.82872604336902
30
0
11
213.93357594396485
21
201.40801304336907
31
0
0
CIRCLE
5
164
100
AcDbEntity
8
0
100
AcDbCircle
10
407.42778523119387
20
225.324140395944
30
0
40
14.99999999999998
0
CIRCLE
5
165
100
AcDbEntity
8
0
100
AcDbCircle
10
400.80595901223518
20
185.982301837861
30
0
40
14.999999999999986
0
CIRCLE
5
166
100
AcDbEntity
8
0
100
AcDbCircle
10
366.03419951959864
20
201.32570231113635
30
0
40
14.999999999999968
0
CIRCLE
5
167
100
AcDbEntity
8
0
100
AcDbCircle
10
329.24303920980731
20
207.46327077568165
30
0
40
14.999999999999991
0
CIRCLE
5
168
100
AcDbEntity
8
0
100
AcDbCircle
10
295.52172201730309
20
193.11180714123711
30
0
40
15.000000000000007
0
CIRCLE
5
169
100
AcDbEntity
8
0
100
AcDbCircle
10
302.69041447693036
20
232.47178029862641
30
0
40
14.999999999999996
0
CIRCLE
5
170
100
AcDbEntity
8
0
100
AcDbCircle
10
336.41604138225091
20
246.76190623682541
30
0
40
15.000000000000011
0
CIRCLE
5
171
100
AcDbEntity
8
0
100
AcDbCircle
10
372.67919531918085
20
240.6393047448629
30
0
40
14.999999999999998
0
ENDSEC
0
SECTION
2
OBJECTS
0
DICTIONARY
5
C
100
AcDbDictionary
3
ACAD_GROUP
350
D
3
ACAD_MLINESTYLE
350
17
0
DICTIONARY
5
D
100
AcDbDictionary
0
DICTIONARY
5
1A
330
C
100
AcDbDictionary
0
DICTIONARY
5
17
100
AcDbDictionary
0
ENDSEC
0
EOF
